PathFileType	3	(X/Y/Z)	D:\Vicon Setup\UG\Test1\New Session\NewSession12.trc
DataRate	CameraRate	NumFrames	NumMarkers	Units	OrigDataRate	OrigDataStartFrame	OrigNumFrames
100.0	100.0	4	27	mm	100.0	342	351	
Frame#	Time	Sternum			LShoulder			RShoulder			LASIS			RASIS			RPSIS			LPSIS			RKneeLateral			RKneeMedial			RFibulaHead			RMidShank			RAnkleLateral			RAnkleMedial			RHeel			RMT5			RMT2			RToe			LKneeLateral			LKneeMedial			LFibulaHead			LMidShank			LAnkleLateral			LAnkleMedial			LHeel			LMT5			LMT2			LToe			
		X1	Y1	Z1	X2	Y2	Z2	X3	Y3	Z3	X4	Y4	Z4	X5	Y5	Z5	X6	Y6	Z6	X7	Y7	Z7	X8	Y8	Z8	X9	Y9	Z9	X10	Y10	Z10	X11	Y11	Z11	X12	Y12	Z12	X13	Y13	Z13	X14	Y14	Z14	X15	Y15	Z15	X16	Y16	Z16	X17	Y17	Z17	X18	Y18	Z18	X19	Y19	Z19	X20	Y20	Z20	X21	Y21	Z21	X22	Y22	Z22	X23	Y23	Z23	X24	Y24	Z24	X25	Y25	Z25	X26	Y26	Z26	X27	Y27	Z27	
342	3.41	-113.05273	1356.2307	1788.4685	-298.71869	1432.5962	1892.2844	72.904312	1396.5695	1859.5172	-232.10405	985.29535	1859.8103	25.84968	997.8938	1859.975	-54.853905	1014.6613	2029.6711	-185.72885	1007.3685	2036.7612	24.310896	527.47626	1973.6426	-107.50098	508.38196	1952.194	23.609573	445.10736	1990.2018	-66.572647	281.59955	1993.6971	-21.694824	91.495308	2072.3323	-97.380486	119.64912	2026.9189	-82.611458	71.750092	2144.5542	26.070843	20.5173	1932.976	-40.827618	53.788719	1922.9187	-39.77272	37.76033	1880.6624	-296.55075	550.21173	1728.7368	-172.44615	536.95044	1702.9167	-301.5054	487.53656	1739.2094	-225.70284	331.29269	1708.1589	-268.95163	126.74902	1779.0845	-196.22807	146.60239	1725.2578	-194.10559	97.007614	1834.7278	-336.34079	60.49892	1664.4144	-277.86218	88.193604	1632.2755	-293.87338	72.300758	1575.9691
343	3.42	-114.12666	1354.2994	1773.9854	-299.14108	1430.046	1877.4264	72.376495	1395.5359	1845.6221	-233.00693	983.53571	1845.5146	24.93185	996.03363	1846.2955	-56.326405	1013.674	2016.171	-186.83769	1005.5281	2022.6078	23.515579	527.88763	1968.5331	-108.72166	508.41071	1947.2462	22.93541	445.70862	1986.249	-66.498184	281.91083	1990.9214	-21.85918	92.578766	2071.5134	-97.806396	120.12714	2025.8732	-82.635536	73.362411	2143.8511	26.154713	20.359268	1932.9347	-40.366993	53.48048	1923.1029	-39.599072	35.940475	1884.7479	-295.70447	547.12292	1714.7784	-171.22906	533.99579	1689.6139	-300.79346	483.35083	1722.6152	-225.08952	328.80692	1682.8151	-270.57932	118.50837	1736.4497	-197.18811	143.12218	1687.5374	-197.48302	85.385437	1793.025	-336.81644	63.549332	1617.5524	-277.52307	93.101707	1588.7787	-292.62506	81.931824	1531.0291
344	3.43	-114.93549	1352.302	1759.4768	-300.24142	1428.1869	1862.6688	71.374367	1393.7073	1831.1724	-234.01074	982.29724	1829.1903	23.326633	995.03271	1838.1273	-57.780029	1012.579	2002.5184	-187.97128	1003.3653	2008.2908	22.727715	528.26001	1963.1237	-109.17183	507.95227	1941.7705	22.198933	446.29617	1981.9724	-66.996323	282.46304	1988.2004	-22.099302	93.768082	2070.666	-97.906601	120.66576	2024.5714	-82.710922	75.059128	2143.0618	26.223444	20.199532	1932.9041	-40.208752	53.174385	1922.6414	-39.680542	35.83115	1884.2844	-295.03497	542.74146	1702.1281	-170.01051	529.94452	1677.0815	-299.78757	478.6402	1706.7128	-224.60468	326.53836	1658.1237	-272.62448	112.85406	1695.918	-198.13115	139.45384	1653.4949	-201.24475	75.163643	1751.4619	-337.34045	68.078857	1571.9733	-276.72946	99.291779	1546.704	-290.55615	92.969681	1487.8301
345	3.44	-116.14751	1349.8939	1744.8999	-301.59814	1426.1409	1847.6545	70.050255	1391.5659	1816.6469	-235.21391	979.9975	1815.3512	21.630177	992.59705	1823.9198	-59.215397	1011.2314	1988.5791	-189.16753	1000.874	1993.7548	21.829514	528.58051	1957.3859	-110.18158	507.63251	1935.7799	21.256401	446.65912	1977.0918	-67.331001	282.80655	1985.0997	-22.420063	95.015846	2069.658	-98.199608	121.25246	2023.2379	-82.869217	76.889084	2142.2124	26.285067	20.055716	1932.874	-40.167686	52.873413	1922.2585	-39.259933	36.533165	1880.3899	-293.27328	538.35699	1689.8416	-168.5105	524.90802	1665.6106	-298.75357	474.05688	1691.8105	-224.46602	324.71219	1633.9482	-274.48474	108.66089	1656.3481	-199.1967	138.18336	1617.3936	-204.91302	66.521309	1710.2954	-337.87131	74.205338	1528.1433	-275.81946	106.55093	1506.5021	-288.23392	105.16723	1446.9044
